<svg xmlns="http://www.w3.org/2000/svg" xmlns:xlink="http://www.w3.org/1999/xlink" width="65.898" height="65.898" viewBox="0 0 65.898 65.898">
  <defs>
    <clipPath id="clip-path">
      <circle id="Ellipse_310" data-name="Ellipse 310" cx="32.949" cy="32.949" r="32.949" fill="none"/>
    </clipPath>
  </defs>
  <g id="Gruppe_7148" data-name="Gruppe 7148" clip-path="url(#clip-path)">
    <g id="Gruppe_7147" data-name="Gruppe 7147" transform="translate(-4.211 -0.383)">
      <rect id="Rechteck_3131" data-name="Rechteck 3131" width="103.357" height="66.331" rx="1.124" fill="#e30a17"/>
      <g id="Gruppe_7146" data-name="Gruppe 7146" transform="translate(16.632 16.458)">
        <path id="Pfad_3882" data-name="Pfad 3882" d="M4.791,219.576a13.725,13.725,0,1,1,7.655-25.114A17.084,17.084,0,0,0-.357,188.7,17.151,17.151,0,0,0-17.51,205.85,17.154,17.154,0,0,0-.357,223.006a17.1,17.1,0,0,0,12.8-5.765,13.663,13.663,0,0,1-7.655,2.335Z" transform="translate(17.51 -188.697)" fill="#fff"/>
        <path id="Pfad_3883" data-name="Pfad 3883" d="M2.734,195.9l-3.184-.03-1.563-3.42a.484.484,0,0,0-.92,0l-1.142,3.42-3.605.03a.486.486,0,0,0-.286.876l2.9,2.143-1.088,3.437a.487.487,0,0,0,.748.542l2.935-2.1,2.931,2.1a.487.487,0,0,0,.748-.542L.12,198.914l2.9-2.143A.486.486,0,0,0,2.734,195.9Z" transform="translate(39.654 -180.606)" fill="#fff"/>
      </g>
    </g>
  </g>
</svg>
